<svg width="100%" height="100%" viewBox="0 0 1080 1080" version="1.1" xmlns="http://www.w3.org/2000/svg" xmlns:xlink="http://www.w3.org/1999/xlink" xml:space="preserve" style="fill-rule:evenodd;clip-rule:evenodd;stroke-linecap:round;stroke-linejoin:round;stroke-miterlimit:1.5;">
    <g transform="matrix(1,0,0,1,-30132.1,-17935)">
        <g id="a" transform="matrix(0.5625,0,0,1,30132.1,17935)">
            <rect x="0" y="0" width="1920" height="1080" style="fill:none;"/>
            <g transform="matrix(2.30257,0,0,1.29519,-69671.6,-22502.5)">
                <circle cx="30675.1" cy="17790.8" r="370.805"/>
            </g>
            <g transform="matrix(1.18581,0,0,1.18581,-184.751,-100.339)">
                <g transform="matrix(1.77778,0,0,1,-53568.2,-17250.8)">
                    <path d="M30694.2,17515.1C30603.5,17534.6 30498.3,17426.5 30372.4,17483.7C30238.9,17544.3 30220.2,17683.4 30226,17894.7C30231.4,18095.6 30371.4,18135.2 30456.5,18129.6C30554.2,18123.3 30589.8,18058.9 30695.4,18047.2C30862.4,18028.8 30929.7,18089.1 31019.3,18031.9C31089.7,17986.9 31130.3,17843.3 31124.7,17727.1C31118.6,17600.7 31062,17483.7 30974.5,17446.4C30883.2,17407.5 30783,17495.9 30694.2,17515.1Z" style="fill:none;stroke:url(#_Linear1);stroke-width:2.95px;"/>
                </g>
                <g transform="matrix(1.70585,0,0,0.959541,-51361.8,-16531.3)">
                    <path d="M30694.2,17515.1C30603.5,17534.6 30498.3,17426.5 30372.4,17483.7C30238.9,17544.3 30220.2,17683.4 30226,17894.7C30231.4,18095.6 30371.4,18135.2 30456.5,18129.6C30554.2,18123.3 30589.8,18058.9 30695.4,18047.2C30862.4,18028.8 30929.7,18089.1 31019.3,18031.9C31089.7,17986.9 31130.3,17843.3 31124.7,17727.1C31118.6,17600.7 31062,17483.7 30974.5,17446.4C30883.2,17407.5 30783,17495.9 30694.2,17515.1Z" style="fill:none;stroke:url(#_Linear2);stroke-width:3.08px;"/>
                </g>
                <g transform="matrix(1.65464,0,0,0.930733,-49790.8,-16019)">
                    <path d="M30694.2,17515.1C30603.5,17534.6 30498.3,17426.5 30372.4,17483.7C30238.9,17544.3 30220.2,17683.4 30226,17894.7C30231.4,18095.6 30371.4,18135.2 30456.5,18129.6C30554.2,18123.3 30589.8,18058.9 30695.4,18047.2C30862.4,18028.8 30929.7,18089.1 31019.3,18031.9C31089.7,17986.9 31130.3,17843.3 31124.7,17727.1C31118.6,17600.7 31062,17483.7 30974.5,17446.4C30883.2,17407.5 30783,17495.9 30694.2,17515.1Z" style="fill:none;stroke:url(#_Linear3);stroke-width:3.17px;"/>
                </g>
                <g transform="matrix(1.60496,0,0,0.902791,-48267,-15522.1)">
                    <path d="M30694.2,17515.1C30603.5,17534.6 30498.3,17426.5 30372.4,17483.7C30238.9,17544.3 30220.2,17683.4 30226,17894.7C30231.4,18095.6 30371.4,18135.2 30456.5,18129.6C30554.2,18123.3 30589.8,18058.9 30695.4,18047.2C30862.4,18028.8 30929.7,18089.1 31019.3,18031.9C31089.7,17986.9 31130.3,17843.3 31124.7,17727.1C31118.6,17600.7 31062,17483.7 30974.5,17446.4C30883.2,17407.5 30783,17495.9 30694.2,17515.1Z" style="fill:none;stroke:url(#_Linear4);stroke-width:3.27px;"/>
                </g>
                <g transform="matrix(1.55678,0,0,0.875687,-46788.9,-15040.1)">
                    <path d="M30694.2,17515.1C30603.5,17534.6 30498.3,17426.5 30372.4,17483.7C30238.9,17544.3 30220.2,17683.4 30226,17894.7C30231.4,18095.6 30371.4,18135.2 30456.5,18129.6C30554.2,18123.3 30589.8,18058.9 30695.4,18047.2C30862.4,18028.8 30929.7,18089.1 31019.3,18031.9C31089.7,17986.9 31130.3,17843.3 31124.7,17727.1C31118.6,17600.7 31062,17483.7 30974.5,17446.4C30883.2,17407.5 30783,17495.9 30694.2,17515.1Z" style="fill:none;stroke:url(#_Linear5);stroke-width:3.37px;"/>
                </g>
                <g transform="matrix(1.51004,0,0,0.849397,-45355.2,-14572.6)">
                    <path d="M30694.2,17515.1C30603.5,17534.6 30498.3,17426.5 30372.4,17483.7C30238.9,17544.3 30220.2,17683.4 30226,17894.7C30231.4,18095.6 30371.4,18135.2 30456.5,18129.6C30554.2,18123.3 30589.8,18058.9 30695.4,18047.2C30862.4,18028.8 30929.7,18089.1 31019.3,18031.9C31089.7,17986.9 31130.3,17843.3 31124.7,17727.1C31118.6,17600.7 31062,17483.7 30974.5,17446.4C30883.2,17407.5 30783,17495.9 30694.2,17515.1Z" style="fill:none;stroke:url(#_Linear6);stroke-width:3.47px;"/>
                </g>
                <g transform="matrix(1.4647,0,0,0.823896,-43964.6,-14119.1)">
                    <path d="M30694.2,17515.1C30603.5,17534.6 30498.3,17426.5 30372.4,17483.7C30238.9,17544.3 30220.2,17683.4 30226,17894.7C30231.4,18095.6 30371.4,18135.2 30456.5,18129.6C30554.2,18123.3 30589.8,18058.9 30695.4,18047.2C30862.4,18028.8 30929.7,18089.1 31019.3,18031.9C31089.7,17986.9 31130.3,17843.3 31124.7,17727.1C31118.6,17600.7 31062,17483.7 30974.5,17446.4C30883.2,17407.5 30783,17495.9 30694.2,17515.1Z" style="fill:none;stroke:url(#_Linear7);stroke-width:3.58px;"/>
                </g>
                <g transform="matrix(1.42073,0,0,0.799161,-42615.7,-13679.2)">
                    <path d="M30694.2,17515.1C30603.5,17534.6 30498.3,17426.5 30372.4,17483.7C30238.9,17544.3 30220.2,17683.4 30226,17894.7C30231.4,18095.6 30371.4,18135.2 30456.5,18129.6C30554.2,18123.3 30589.8,18058.9 30695.4,18047.2C30862.4,18028.8 30929.7,18089.1 31019.3,18031.9C31089.7,17986.9 31130.3,17843.3 31124.7,17727.1C31118.6,17600.7 31062,17483.7 30974.5,17446.4C30883.2,17407.5 30783,17495.9 30694.2,17515.1Z" style="fill:none;stroke:url(#_Linear8);stroke-width:3.69px;"/>
                </g>
                <g transform="matrix(1.37808,0,0,0.775168,-41307.3,-13252.5)">
                    <path d="M30694.2,17515.1C30603.5,17534.6 30498.3,17426.5 30372.4,17483.7C30238.9,17544.3 30220.2,17683.4 30226,17894.7C30231.4,18095.6 30371.4,18135.2 30456.5,18129.6C30554.2,18123.3 30589.8,18058.9 30695.4,18047.2C30862.4,18028.8 30929.7,18089.1 31019.3,18031.9C31089.7,17986.9 31130.3,17843.3 31124.7,17727.1C31118.6,17600.7 31062,17483.7 30974.5,17446.4C30883.2,17407.5 30783,17495.9 30694.2,17515.1Z" style="fill:none;stroke:url(#_Linear9);stroke-width:3.81px;"/>
                </g>
                <g transform="matrix(1.3367,0,0,0.751896,-40038.2,-12838.7)">
                    <path d="M30694.2,17515.1C30603.5,17534.6 30498.3,17426.5 30372.4,17483.7C30238.9,17544.3 30220.2,17683.4 30226,17894.7C30231.4,18095.6 30371.4,18135.2 30456.5,18129.6C30554.2,18123.3 30589.8,18058.9 30695.4,18047.2C30862.4,18028.8 30929.7,18089.1 31019.3,18031.9C31089.7,17986.9 31130.3,17843.3 31124.7,17727.1C31118.6,17600.7 31062,17483.7 30974.5,17446.4C30883.2,17407.5 30783,17495.9 30694.2,17515.1Z" style="fill:none;stroke:url(#_Linear10);stroke-width:3.93px;"/>
                </g>
                <g transform="matrix(1.29657,0,0,0.729322,-38807.2,-12437.2)">
                    <path d="M30694.2,17515.1C30603.5,17534.6 30498.3,17426.5 30372.4,17483.7C30238.9,17544.3 30220.2,17683.4 30226,17894.7C30231.4,18095.6 30371.4,18135.2 30456.5,18129.6C30554.2,18123.3 30589.8,18058.9 30695.4,18047.2C30862.4,18028.8 30929.7,18089.1 31019.3,18031.9C31089.7,17986.9 31130.3,17843.3 31124.7,17727.1C31118.6,17600.7 31062,17483.7 30974.5,17446.4C30883.2,17407.5 30783,17495.9 30694.2,17515.1Z" style="fill:none;stroke:url(#_Linear11);stroke-width:4.05px;"/>
                </g>
                <g transform="matrix(1.25765,0,0,0.707426,-37613.1,-12047.8)">
                    <path d="M30694.2,17515.1C30603.5,17534.6 30498.3,17426.5 30372.4,17483.7C30238.9,17544.3 30220.2,17683.4 30226,17894.7C30231.4,18095.6 30371.4,18135.2 30456.5,18129.6C30554.2,18123.3 30589.8,18058.9 30695.4,18047.2C30862.4,18028.8 30929.7,18089.1 31019.3,18031.9C31089.7,17986.9 31130.3,17843.3 31124.7,17727.1C31118.6,17600.7 31062,17483.7 30974.5,17446.4C30883.2,17407.5 30783,17495.9 30694.2,17515.1Z" style="fill:none;stroke:url(#_Linear12);stroke-width:4.17px;"/>
                </g>
                <g transform="matrix(1.21989,0,0,0.686188,-36454.9,-11670.2)">
                    <path d="M30694.2,17515.1C30603.5,17534.6 30498.3,17426.5 30372.4,17483.7C30238.9,17544.3 30220.2,17683.4 30226,17894.7C30231.4,18095.6 30371.4,18135.2 30456.5,18129.6C30554.2,18123.3 30589.8,18058.9 30695.4,18047.2C30862.4,18028.8 30929.7,18089.1 31019.3,18031.9C31089.7,17986.9 31130.3,17843.3 31124.7,17727.1C31118.6,17600.7 31062,17483.7 30974.5,17446.4C30883.2,17407.5 30783,17495.9 30694.2,17515.1Z" style="fill:none;stroke:url(#_Linear13);stroke-width:4.3px;"/>
                </g>
                <g transform="matrix(1.18327,0,0,0.665587,-35331.4,-11303.8)">
                    <path d="M30694.2,17515.1C30603.5,17534.6 30498.3,17426.5 30372.4,17483.7C30238.9,17544.3 30220.2,17683.4 30226,17894.7C30231.4,18095.6 30371.4,18135.2 30456.5,18129.6C30554.2,18123.3 30589.8,18058.9 30695.4,18047.2C30862.4,18028.8 30929.7,18089.1 31019.3,18031.9C31089.7,17986.9 31130.3,17843.3 31124.7,17727.1C31118.6,17600.7 31062,17483.7 30974.5,17446.4C30883.2,17407.5 30783,17495.9 30694.2,17515.1Z" style="fill:none;stroke:url(#_Linear14);stroke-width:4.43px;"/>
                </g>
                <g transform="matrix(1.14774,0,0,0.645604,-34241.7,-10948.4)">
                    <path d="M30694.2,17515.1C30603.5,17534.6 30498.3,17426.5 30372.4,17483.7C30238.9,17544.3 30220.2,17683.4 30226,17894.7C30231.4,18095.6 30371.4,18135.2 30456.5,18129.6C30554.2,18123.3 30589.8,18058.9 30695.4,18047.2C30862.4,18028.8 30929.7,18089.1 31019.3,18031.9C31089.7,17986.9 31130.3,17843.3 31124.7,17727.1C31118.6,17600.7 31062,17483.7 30974.5,17446.4C30883.2,17407.5 30783,17495.9 30694.2,17515.1Z" style="fill:none;stroke:url(#_Linear15);stroke-width:4.57px;"/>
                </g>
                <g transform="matrix(1.11328,0,0,0.626222,-33184.7,-10603.8)">
                    <path d="M30694.2,17515.1C30603.5,17534.6 30498.3,17426.5 30372.4,17483.7C30238.9,17544.3 30220.2,17683.4 30226,17894.7C30231.4,18095.6 30371.4,18135.2 30456.5,18129.6C30554.2,18123.3 30589.8,18058.9 30695.4,18047.2C30862.4,18028.8 30929.7,18089.1 31019.3,18031.9C31089.7,17986.9 31130.3,17843.3 31124.7,17727.1C31118.6,17600.7 31062,17483.7 30974.5,17446.4C30883.2,17407.5 30783,17495.9 30694.2,17515.1Z" style="fill:none;stroke:url(#_Linear16);stroke-width:4.71px;"/>
                </g>
                <g transform="matrix(1.07986,0,0,0.607421,-32159.5,-10269.4)">
                    <path d="M30694.2,17515.1C30603.5,17534.6 30498.3,17426.5 30372.4,17483.7C30238.9,17544.3 30220.2,17683.4 30226,17894.7C30231.4,18095.6 30371.4,18135.2 30456.5,18129.6C30554.2,18123.3 30589.8,18058.9 30695.4,18047.2C30862.4,18028.8 30929.7,18089.1 31019.3,18031.9C31089.7,17986.9 31130.3,17843.3 31124.7,17727.1C31118.6,17600.7 31062,17483.7 30974.5,17446.4C30883.2,17407.5 30783,17495.9 30694.2,17515.1Z" style="fill:none;stroke:url(#_Linear17);stroke-width:4.86px;"/>
                </g>
                <g transform="matrix(1.04744,0,0,0.589185,-31165,-9945.12)">
                    <path d="M30694.2,17515.1C30603.5,17534.6 30498.3,17426.5 30372.4,17483.7C30238.9,17544.3 30220.2,17683.4 30226,17894.7C30231.4,18095.6 30371.4,18135.2 30456.5,18129.6C30554.2,18123.3 30589.8,18058.9 30695.4,18047.2C30862.4,18028.8 30929.7,18089.1 31019.3,18031.9C31089.7,17986.9 31130.3,17843.3 31124.7,17727.1C31118.6,17600.7 31062,17483.7 30974.5,17446.4C30883.2,17407.5 30783,17495.9 30694.2,17515.1Z" style="fill:none;stroke:url(#_Linear18);stroke-width:5.01px;"/>
                </g>
                <g transform="matrix(1.01599,0,0,0.571496,-30200.4,-9630.56)">
                    <path d="M30694.2,17515.1C30603.5,17534.6 30498.3,17426.5 30372.4,17483.7C30238.9,17544.3 30220.2,17683.4 30226,17894.7C30231.4,18095.6 30371.4,18135.2 30456.5,18129.6C30554.2,18123.3 30589.8,18058.9 30695.4,18047.2C30862.4,18028.8 30929.7,18089.1 31019.3,18031.9C31089.7,17986.9 31130.3,17843.3 31124.7,17727.1C31118.6,17600.7 31062,17483.7 30974.5,17446.4C30883.2,17407.5 30783,17495.9 30694.2,17515.1Z" style="fill:none;stroke:url(#_Linear19);stroke-width:5.16px;"/>
                </g>
                <g transform="matrix(0.985491,0,0,0.554339,-29264.7,-9325.44)">
                    <path d="M30694.2,17515.1C30603.5,17534.6 30498.3,17426.5 30372.4,17483.7C30238.9,17544.3 30220.2,17683.4 30226,17894.7C30231.4,18095.6 30371.4,18135.2 30456.5,18129.6C30554.2,18123.3 30589.8,18058.9 30695.4,18047.2C30862.4,18028.8 30929.7,18089.1 31019.3,18031.9C31089.7,17986.9 31130.3,17843.3 31124.7,17727.1C31118.6,17600.7 31062,17483.7 30974.5,17446.4C30883.2,17407.5 30783,17495.9 30694.2,17515.1Z" style="fill:none;stroke:url(#_Linear20);stroke-width:5.32px;"/>
                </g>
                <g transform="matrix(0.955905,0,0,0.537696,-28357.1,-9029.48)">
                    <path d="M30694.2,17515.1C30603.5,17534.6 30498.3,17426.5 30372.4,17483.7C30238.9,17544.3 30220.2,17683.4 30226,17894.7C30231.4,18095.6 30371.4,18135.2 30456.5,18129.6C30554.2,18123.3 30589.8,18058.9 30695.4,18047.2C30862.4,18028.8 30929.7,18089.1 31019.3,18031.9C31089.7,17986.9 31130.3,17843.3 31124.7,17727.1C31118.6,17600.7 31062,17483.7 30974.5,17446.4C30883.2,17407.5 30783,17495.9 30694.2,17515.1Z" style="fill:none;stroke:url(#_Linear21);stroke-width:5.49px;"/>
                </g>
                <g transform="matrix(0.927206,0,0,0.521553,-27476.8,-8742.41)">
                    <path d="M30694.2,17515.1C30603.5,17534.6 30498.3,17426.5 30372.4,17483.7C30238.9,17544.3 30220.2,17683.4 30226,17894.7C30231.4,18095.6 30371.4,18135.2 30456.5,18129.6C30554.2,18123.3 30589.8,18058.9 30695.4,18047.2C30862.4,18028.8 30929.7,18089.1 31019.3,18031.9C31089.7,17986.9 31130.3,17843.3 31124.7,17727.1C31118.6,17600.7 31062,17483.7 30974.5,17446.4C30883.2,17407.5 30783,17495.9 30694.2,17515.1Z" style="fill:none;stroke:url(#_Linear22);stroke-width:5.66px;"/>
                </g>
                <g transform="matrix(0.899369,0,0,0.505895,-26622.9,-8463.95)">
                    <path d="M30694.2,17515.1C30603.5,17534.6 30498.3,17426.5 30372.4,17483.7C30238.9,17544.3 30220.2,17683.4 30226,17894.7C30231.4,18095.6 30371.4,18135.2 30456.5,18129.6C30554.2,18123.3 30589.8,18058.9 30695.4,18047.2C30862.4,18028.8 30929.7,18089.1 31019.3,18031.9C31089.7,17986.9 31130.3,17843.3 31124.7,17727.1C31118.6,17600.7 31062,17483.7 30974.5,17446.4C30883.2,17407.5 30783,17495.9 30694.2,17515.1Z" style="fill:none;stroke:url(#_Linear23);stroke-width:5.83px;"/>
                </g>
                <g transform="matrix(0.872368,0,0,0.490707,-25794.6,-8193.85)">
                    <path d="M30694.2,17515.1C30603.5,17534.6 30498.3,17426.5 30372.4,17483.7C30238.9,17544.3 30220.2,17683.4 30226,17894.7C30231.4,18095.6 30371.4,18135.2 30456.5,18129.6C30554.2,18123.3 30589.8,18058.9 30695.4,18047.2C30862.4,18028.8 30929.7,18089.1 31019.3,18031.9C31089.7,17986.9 31130.3,17843.3 31124.7,17727.1C31118.6,17600.7 31062,17483.7 30974.5,17446.4C30883.2,17407.5 30783,17495.9 30694.2,17515.1Z" style="fill:none;stroke:url(#_Linear24);stroke-width:6.01px;"/>
                </g>
                <g transform="matrix(0.846178,0,0,0.475975,-24991.2,-7931.87)">
                    <path d="M30694.2,17515.1C30603.5,17534.6 30498.3,17426.5 30372.4,17483.7C30238.9,17544.3 30220.2,17683.4 30226,17894.7C30231.4,18095.6 30371.4,18135.2 30456.5,18129.6C30554.2,18123.3 30589.8,18058.9 30695.4,18047.2C30862.4,18028.8 30929.7,18089.1 31019.3,18031.9C31089.7,17986.9 31130.3,17843.3 31124.7,17727.1C31118.6,17600.7 31062,17483.7 30974.5,17446.4C30883.2,17407.5 30783,17495.9 30694.2,17515.1Z" style="fill:none;stroke:url(#_Linear25);stroke-width:6.2px;"/>
                </g>
                <g transform="matrix(0.820774,0,0,0.461685,-24212,-7677.75)">
                    <path d="M30694.2,17515.1C30603.5,17534.6 30498.3,17426.5 30372.4,17483.7C30238.9,17544.3 30220.2,17683.4 30226,17894.7C30231.4,18095.6 30371.4,18135.2 30456.5,18129.6C30554.2,18123.3 30589.8,18058.9 30695.4,18047.2C30862.4,18028.8 30929.7,18089.1 31019.3,18031.9C31089.7,17986.9 31130.3,17843.3 31124.7,17727.1C31118.6,17600.7 31062,17483.7 30974.5,17446.4C30883.2,17407.5 30783,17495.9 30694.2,17515.1Z" style="fill:none;stroke:url(#_Linear26);stroke-width:6.39px;"/>
                </g>
                <g transform="matrix(0.796132,0,0,0.447824,-23456.1,-7431.25)">
                    <path d="M30694.2,17515.1C30603.5,17534.6 30498.3,17426.5 30372.4,17483.7C30238.9,17544.3 30220.2,17683.4 30226,17894.7C30231.4,18095.6 30371.4,18135.2 30456.5,18129.6C30554.2,18123.3 30589.8,18058.9 30695.4,18047.2C30862.4,18028.8 30929.7,18089.1 31019.3,18031.9C31089.7,17986.9 31130.3,17843.3 31124.7,17727.1C31118.6,17600.7 31062,17483.7 30974.5,17446.4C30883.2,17407.5 30783,17495.9 30694.2,17515.1Z" style="fill:none;stroke:url(#_Linear27);stroke-width:6.59px;"/>
                </g>
                <g transform="matrix(0.77223,0,0,0.43438,-22722.9,-7192.16)">
                    <path d="M30694.2,17515.1C30603.5,17534.6 30498.3,17426.5 30372.4,17483.7C30238.9,17544.3 30220.2,17683.4 30226,17894.7C30231.4,18095.6 30371.4,18135.2 30456.5,18129.6C30554.2,18123.3 30589.8,18058.9 30695.4,18047.2C30862.4,18028.8 30929.7,18089.1 31019.3,18031.9C31089.7,17986.9 31130.3,17843.3 31124.7,17727.1C31118.6,17600.7 31062,17483.7 30974.5,17446.4C30883.2,17407.5 30783,17495.9 30694.2,17515.1Z" style="fill:none;stroke:url(#_Linear28);stroke-width:6.79px;"/>
                </g>
                <g transform="matrix(0.749046,0,0,0.421339,-22011.7,-6960.25)">
                    <path d="M30694.2,17515.1C30603.5,17534.6 30498.3,17426.5 30372.4,17483.7C30238.9,17544.3 30220.2,17683.4 30226,17894.7C30231.4,18095.6 30371.4,18135.2 30456.5,18129.6C30554.2,18123.3 30589.8,18058.9 30695.4,18047.2C30862.4,18028.8 30929.7,18089.1 31019.3,18031.9C31089.7,17986.9 31130.3,17843.3 31124.7,17727.1C31118.6,17600.7 31062,17483.7 30974.5,17446.4C30883.2,17407.5 30783,17495.9 30694.2,17515.1Z" style="fill:none;stroke:url(#_Linear29);stroke-width:7.01px;"/>
                </g>
                <g transform="matrix(0.726558,0,0,0.408689,-21321.9,-6735.3)">
                    <path d="M30694.2,17515.1C30603.5,17534.6 30498.3,17426.5 30372.4,17483.7C30238.9,17544.3 30220.2,17683.4 30226,17894.7C30231.4,18095.6 30371.4,18135.2 30456.5,18129.6C30554.2,18123.3 30589.8,18058.9 30695.4,18047.2C30862.4,18028.8 30929.7,18089.1 31019.3,18031.9C31089.7,17986.9 31130.3,17843.3 31124.7,17727.1C31118.6,17600.7 31062,17483.7 30974.5,17446.4C30883.2,17407.5 30783,17495.9 30694.2,17515.1Z" style="fill:none;stroke:url(#_Linear30);stroke-width:7.22px;"/>
                </g>
                <g transform="matrix(0.704745,0,0,0.396419,-20652.8,-6517.1)">
                    <path d="M30694.2,17515.1C30603.5,17534.6 30498.3,17426.5 30372.4,17483.7C30238.9,17544.3 30220.2,17683.4 30226,17894.7C30231.4,18095.6 30371.4,18135.2 30456.5,18129.6C30554.2,18123.3 30589.8,18058.9 30695.4,18047.2C30862.4,18028.8 30929.7,18089.1 31019.3,18031.9C31089.7,17986.9 31130.3,17843.3 31124.7,17727.1C31118.6,17600.7 31062,17483.7 30974.5,17446.4C30883.2,17407.5 30783,17495.9 30694.2,17515.1Z" style="fill:none;stroke:url(#_Linear31);stroke-width:7.45px;"/>
                </g>
                <g transform="matrix(0.683587,0,0,0.384518,-20003.7,-6305.45)">
                    <path d="M30694.2,17515.1C30603.5,17534.6 30498.3,17426.5 30372.4,17483.7C30238.9,17544.3 30220.2,17683.4 30226,17894.7C30231.4,18095.6 30371.4,18135.2 30456.5,18129.6C30554.2,18123.3 30589.8,18058.9 30695.4,18047.2C30862.4,18028.8 30929.7,18089.1 31019.3,18031.9C31089.7,17986.9 31130.3,17843.3 31124.7,17727.1C31118.6,17600.7 31062,17483.7 30974.5,17446.4C30883.2,17407.5 30783,17495.9 30694.2,17515.1Z" style="fill:none;stroke:url(#_Linear32);stroke-width:7.68px;"/>
                </g>
                <g transform="matrix(0.663064,0,0,0.372974,-19374.2,-6100.16)">
                    <path d="M30694.2,17515.1C30603.5,17534.6 30498.3,17426.5 30372.4,17483.7C30238.9,17544.3 30220.2,17683.4 30226,17894.7C30231.4,18095.6 30371.4,18135.2 30456.5,18129.6C30554.2,18123.3 30589.8,18058.9 30695.4,18047.2C30862.4,18028.8 30929.7,18089.1 31019.3,18031.9C31089.7,17986.9 31130.3,17843.3 31124.7,17727.1C31118.6,17600.7 31062,17483.7 30974.5,17446.4C30883.2,17407.5 30783,17495.9 30694.2,17515.1Z" style="fill:none;stroke:url(#_Linear33);stroke-width:7.91px;"/>
                </g>
                <g transform="matrix(0.643158,0,0,0.361776,-18763.6,-5901.03)">
                    <path d="M30694.2,17515.1C30603.5,17534.6 30498.3,17426.5 30372.4,17483.7C30238.9,17544.3 30220.2,17683.4 30226,17894.7C30231.4,18095.6 30371.4,18135.2 30456.5,18129.6C30554.2,18123.3 30589.8,18058.9 30695.4,18047.2C30862.4,18028.8 30929.7,18089.1 31019.3,18031.9C31089.7,17986.9 31130.3,17843.3 31124.7,17727.1C31118.6,17600.7 31062,17483.7 30974.5,17446.4C30883.2,17407.5 30783,17495.9 30694.2,17515.1Z" style="fill:none;stroke:url(#_Linear34);stroke-width:8.16px;"/>
                </g>
            </g>
        </g>
    </g>
    <defs>
        <linearGradient id="_Linear1" x1="0" y1="0" x2="1" y2="0" gradientUnits="userSpaceOnUse" gradientTransform="matrix(880.672,0,0,727.111,30225.1,17783.3)"><stop offset="0" style="stop-color:rgb(233,214,156);stop-opacity:1"/><stop offset="0.16" style="stop-color:rgb(219,136,64);stop-opacity:1"/><stop offset="0.33" style="stop-color:rgb(215,111,34);stop-opacity:1"/><stop offset="0.62" style="stop-color:rgb(237,246,250);stop-opacity:1"/><stop offset="1" style="stop-color:rgb(236,195,132);stop-opacity:1"/></linearGradient>
        <linearGradient id="_Linear2" x1="0" y1="0" x2="1" y2="0" gradientUnits="userSpaceOnUse" gradientTransform="matrix(880.672,0,0,727.111,30225.1,17783.3)"><stop offset="0" style="stop-color:rgb(233,214,156);stop-opacity:1"/><stop offset="0.16" style="stop-color:rgb(219,136,64);stop-opacity:1"/><stop offset="0.33" style="stop-color:rgb(215,111,34);stop-opacity:1"/><stop offset="0.62" style="stop-color:rgb(237,246,250);stop-opacity:1"/><stop offset="1" style="stop-color:rgb(236,195,132);stop-opacity:1"/></linearGradient>
        <linearGradient id="_Linear3" x1="0" y1="0" x2="1" y2="0" gradientUnits="userSpaceOnUse" gradientTransform="matrix(880.672,0,0,727.111,30225.1,17783.3)"><stop offset="0" style="stop-color:rgb(233,214,156);stop-opacity:1"/><stop offset="0.16" style="stop-color:rgb(219,136,64);stop-opacity:1"/><stop offset="0.33" style="stop-color:rgb(215,111,34);stop-opacity:1"/><stop offset="0.62" style="stop-color:rgb(237,246,250);stop-opacity:1"/><stop offset="1" style="stop-color:rgb(236,195,132);stop-opacity:1"/></linearGradient>
        <linearGradient id="_Linear4" x1="0" y1="0" x2="1" y2="0" gradientUnits="userSpaceOnUse" gradientTransform="matrix(880.672,0,0,727.111,30225.1,17783.3)"><stop offset="0" style="stop-color:rgb(233,214,156);stop-opacity:1"/><stop offset="0.16" style="stop-color:rgb(219,136,64);stop-opacity:1"/><stop offset="0.33" style="stop-color:rgb(215,111,34);stop-opacity:1"/><stop offset="0.62" style="stop-color:rgb(237,246,250);stop-opacity:1"/><stop offset="1" style="stop-color:rgb(236,195,132);stop-opacity:1"/></linearGradient>
        <linearGradient id="_Linear5" x1="0" y1="0" x2="1" y2="0" gradientUnits="userSpaceOnUse" gradientTransform="matrix(880.672,0,0,727.111,30225.1,17783.3)"><stop offset="0" style="stop-color:rgb(233,214,156);stop-opacity:1"/><stop offset="0.16" style="stop-color:rgb(219,136,64);stop-opacity:1"/><stop offset="0.33" style="stop-color:rgb(215,111,34);stop-opacity:1"/><stop offset="0.62" style="stop-color:rgb(237,246,250);stop-opacity:1"/><stop offset="1" style="stop-color:rgb(236,195,132);stop-opacity:1"/></linearGradient>
        <linearGradient id="_Linear6" x1="0" y1="0" x2="1" y2="0" gradientUnits="userSpaceOnUse" gradientTransform="matrix(880.672,0,0,727.111,30225.1,17783.3)"><stop offset="0" style="stop-color:rgb(233,214,156);stop-opacity:1"/><stop offset="0.16" style="stop-color:rgb(219,136,64);stop-opacity:1"/><stop offset="0.33" style="stop-color:rgb(215,111,34);stop-opacity:1"/><stop offset="0.62" style="stop-color:rgb(237,246,250);stop-opacity:1"/><stop offset="1" style="stop-color:rgb(236,195,132);stop-opacity:1"/></linearGradient>
        <linearGradient id="_Linear7" x1="0" y1="0" x2="1" y2="0" gradientUnits="userSpaceOnUse" gradientTransform="matrix(880.672,0,0,727.111,30225.1,17783.3)"><stop offset="0" style="stop-color:rgb(233,214,156);stop-opacity:1"/><stop offset="0.16" style="stop-color:rgb(219,136,64);stop-opacity:1"/><stop offset="0.33" style="stop-color:rgb(215,111,34);stop-opacity:1"/><stop offset="0.62" style="stop-color:rgb(237,246,250);stop-opacity:1"/><stop offset="1" style="stop-color:rgb(236,195,132);stop-opacity:1"/></linearGradient>
        <linearGradient id="_Linear8" x1="0" y1="0" x2="1" y2="0" gradientUnits="userSpaceOnUse" gradientTransform="matrix(880.672,0,0,727.111,30225.1,17783.3)"><stop offset="0" style="stop-color:rgb(233,214,156);stop-opacity:1"/><stop offset="0.16" style="stop-color:rgb(219,136,64);stop-opacity:1"/><stop offset="0.33" style="stop-color:rgb(215,111,34);stop-opacity:1"/><stop offset="0.62" style="stop-color:rgb(237,246,250);stop-opacity:1"/><stop offset="1" style="stop-color:rgb(236,195,132);stop-opacity:1"/></linearGradient>
        <linearGradient id="_Linear9" x1="0" y1="0" x2="1" y2="0" gradientUnits="userSpaceOnUse" gradientTransform="matrix(880.672,0,0,727.111,30225.1,17783.3)"><stop offset="0" style="stop-color:rgb(233,214,156);stop-opacity:1"/><stop offset="0.16" style="stop-color:rgb(219,136,64);stop-opacity:1"/><stop offset="0.33" style="stop-color:rgb(215,111,34);stop-opacity:1"/><stop offset="0.62" style="stop-color:rgb(237,246,250);stop-opacity:1"/><stop offset="1" style="stop-color:rgb(236,195,132);stop-opacity:1"/></linearGradient>
        <linearGradient id="_Linear10" x1="0" y1="0" x2="1" y2="0" gradientUnits="userSpaceOnUse" gradientTransform="matrix(880.672,0,0,727.111,30225.1,17783.3)"><stop offset="0" style="stop-color:rgb(233,214,156);stop-opacity:1"/><stop offset="0.16" style="stop-color:rgb(219,136,64);stop-opacity:1"/><stop offset="0.33" style="stop-color:rgb(215,111,34);stop-opacity:1"/><stop offset="0.62" style="stop-color:rgb(237,246,250);stop-opacity:1"/><stop offset="1" style="stop-color:rgb(236,195,132);stop-opacity:1"/></linearGradient>
        <linearGradient id="_Linear11" x1="0" y1="0" x2="1" y2="0" gradientUnits="userSpaceOnUse" gradientTransform="matrix(880.672,0,0,727.111,30225.1,17783.3)"><stop offset="0" style="stop-color:rgb(233,214,156);stop-opacity:1"/><stop offset="0.16" style="stop-color:rgb(219,136,64);stop-opacity:1"/><stop offset="0.33" style="stop-color:rgb(215,111,34);stop-opacity:1"/><stop offset="0.62" style="stop-color:rgb(237,246,250);stop-opacity:1"/><stop offset="1" style="stop-color:rgb(236,195,132);stop-opacity:1"/></linearGradient>
        <linearGradient id="_Linear12" x1="0" y1="0" x2="1" y2="0" gradientUnits="userSpaceOnUse" gradientTransform="matrix(880.672,0,0,727.111,30225.1,17783.3)"><stop offset="0" style="stop-color:rgb(233,214,156);stop-opacity:1"/><stop offset="0.16" style="stop-color:rgb(219,136,64);stop-opacity:1"/><stop offset="0.33" style="stop-color:rgb(215,111,34);stop-opacity:1"/><stop offset="0.62" style="stop-color:rgb(237,246,250);stop-opacity:1"/><stop offset="1" style="stop-color:rgb(236,195,132);stop-opacity:1"/></linearGradient>
        <linearGradient id="_Linear13" x1="0" y1="0" x2="1" y2="0" gradientUnits="userSpaceOnUse" gradientTransform="matrix(880.672,0,0,727.111,30225.1,17783.3)"><stop offset="0" style="stop-color:rgb(233,214,156);stop-opacity:1"/><stop offset="0.16" style="stop-color:rgb(219,136,64);stop-opacity:1"/><stop offset="0.33" style="stop-color:rgb(215,111,34);stop-opacity:1"/><stop offset="0.62" style="stop-color:rgb(237,246,250);stop-opacity:1"/><stop offset="1" style="stop-color:rgb(236,195,132);stop-opacity:1"/></linearGradient>
        <linearGradient id="_Linear14" x1="0" y1="0" x2="1" y2="0" gradientUnits="userSpaceOnUse" gradientTransform="matrix(880.672,0,0,727.111,30225.1,17783.3)"><stop offset="0" style="stop-color:rgb(233,214,156);stop-opacity:1"/><stop offset="0.16" style="stop-color:rgb(219,136,64);stop-opacity:1"/><stop offset="0.33" style="stop-color:rgb(215,111,34);stop-opacity:1"/><stop offset="0.62" style="stop-color:rgb(237,246,250);stop-opacity:1"/><stop offset="1" style="stop-color:rgb(236,195,132);stop-opacity:1"/></linearGradient>
        <linearGradient id="_Linear15" x1="0" y1="0" x2="1" y2="0" gradientUnits="userSpaceOnUse" gradientTransform="matrix(880.672,0,0,727.111,30225.1,17783.3)"><stop offset="0" style="stop-color:rgb(233,214,156);stop-opacity:1"/><stop offset="0.16" style="stop-color:rgb(219,136,64);stop-opacity:1"/><stop offset="0.33" style="stop-color:rgb(215,111,34);stop-opacity:1"/><stop offset="0.62" style="stop-color:rgb(237,246,250);stop-opacity:1"/><stop offset="1" style="stop-color:rgb(236,195,132);stop-opacity:1"/></linearGradient>
        <linearGradient id="_Linear16" x1="0" y1="0" x2="1" y2="0" gradientUnits="userSpaceOnUse" gradientTransform="matrix(880.672,0,0,727.111,30225.1,17783.3)"><stop offset="0" style="stop-color:rgb(233,214,156);stop-opacity:1"/><stop offset="0.16" style="stop-color:rgb(219,136,64);stop-opacity:1"/><stop offset="0.33" style="stop-color:rgb(215,111,34);stop-opacity:1"/><stop offset="0.62" style="stop-color:rgb(237,246,250);stop-opacity:1"/><stop offset="1" style="stop-color:rgb(236,195,132);stop-opacity:1"/></linearGradient>
        <linearGradient id="_Linear17" x1="0" y1="0" x2="1" y2="0" gradientUnits="userSpaceOnUse" gradientTransform="matrix(880.672,0,0,727.111,30225.1,17783.3)"><stop offset="0" style="stop-color:rgb(233,214,156);stop-opacity:1"/><stop offset="0.16" style="stop-color:rgb(219,136,64);stop-opacity:1"/><stop offset="0.33" style="stop-color:rgb(215,111,34);stop-opacity:1"/><stop offset="0.62" style="stop-color:rgb(237,246,250);stop-opacity:1"/><stop offset="1" style="stop-color:rgb(236,195,132);stop-opacity:1"/></linearGradient>
        <linearGradient id="_Linear18" x1="0" y1="0" x2="1" y2="0" gradientUnits="userSpaceOnUse" gradientTransform="matrix(880.672,0,0,727.111,30225.1,17783.3)"><stop offset="0" style="stop-color:rgb(233,214,156);stop-opacity:1"/><stop offset="0.16" style="stop-color:rgb(219,136,64);stop-opacity:1"/><stop offset="0.33" style="stop-color:rgb(215,111,34);stop-opacity:1"/><stop offset="0.62" style="stop-color:rgb(237,246,250);stop-opacity:1"/><stop offset="1" style="stop-color:rgb(236,195,132);stop-opacity:1"/></linearGradient>
        <linearGradient id="_Linear19" x1="0" y1="0" x2="1" y2="0" gradientUnits="userSpaceOnUse" gradientTransform="matrix(880.672,0,0,727.111,30225.1,17783.3)"><stop offset="0" style="stop-color:rgb(233,214,156);stop-opacity:1"/><stop offset="0.16" style="stop-color:rgb(219,136,64);stop-opacity:1"/><stop offset="0.33" style="stop-color:rgb(215,111,34);stop-opacity:1"/><stop offset="0.62" style="stop-color:rgb(237,246,250);stop-opacity:1"/><stop offset="1" style="stop-color:rgb(236,195,132);stop-opacity:1"/></linearGradient>
        <linearGradient id="_Linear20" x1="0" y1="0" x2="1" y2="0" gradientUnits="userSpaceOnUse" gradientTransform="matrix(880.672,0,0,727.111,30225.1,17783.3)"><stop offset="0" style="stop-color:rgb(233,214,156);stop-opacity:1"/><stop offset="0.16" style="stop-color:rgb(219,136,64);stop-opacity:1"/><stop offset="0.33" style="stop-color:rgb(215,111,34);stop-opacity:1"/><stop offset="0.62" style="stop-color:rgb(237,246,250);stop-opacity:1"/><stop offset="1" style="stop-color:rgb(236,195,132);stop-opacity:1"/></linearGradient>
        <linearGradient id="_Linear21" x1="0" y1="0" x2="1" y2="0" gradientUnits="userSpaceOnUse" gradientTransform="matrix(880.672,0,0,727.111,30225.1,17783.3)"><stop offset="0" style="stop-color:rgb(233,214,156);stop-opacity:1"/><stop offset="0.16" style="stop-color:rgb(219,136,64);stop-opacity:1"/><stop offset="0.33" style="stop-color:rgb(215,111,34);stop-opacity:1"/><stop offset="0.62" style="stop-color:rgb(237,246,250);stop-opacity:1"/><stop offset="1" style="stop-color:rgb(236,195,132);stop-opacity:1"/></linearGradient>
        <linearGradient id="_Linear22" x1="0" y1="0" x2="1" y2="0" gradientUnits="userSpaceOnUse" gradientTransform="matrix(880.672,0,0,727.111,30225.1,17783.3)"><stop offset="0" style="stop-color:rgb(233,214,156);stop-opacity:1"/><stop offset="0.16" style="stop-color:rgb(219,136,64);stop-opacity:1"/><stop offset="0.33" style="stop-color:rgb(215,111,34);stop-opacity:1"/><stop offset="0.62" style="stop-color:rgb(237,246,250);stop-opacity:1"/><stop offset="1" style="stop-color:rgb(236,195,132);stop-opacity:1"/></linearGradient>
        <linearGradient id="_Linear23" x1="0" y1="0" x2="1" y2="0" gradientUnits="userSpaceOnUse" gradientTransform="matrix(880.672,0,0,727.111,30225.1,17783.3)"><stop offset="0" style="stop-color:rgb(233,214,156);stop-opacity:1"/><stop offset="0.16" style="stop-color:rgb(219,136,64);stop-opacity:1"/><stop offset="0.33" style="stop-color:rgb(215,111,34);stop-opacity:1"/><stop offset="0.62" style="stop-color:rgb(237,246,250);stop-opacity:1"/><stop offset="1" style="stop-color:rgb(236,195,132);stop-opacity:1"/></linearGradient>
        <linearGradient id="_Linear24" x1="0" y1="0" x2="1" y2="0" gradientUnits="userSpaceOnUse" gradientTransform="matrix(880.672,0,0,727.111,30225.1,17783.3)"><stop offset="0" style="stop-color:rgb(233,214,156);stop-opacity:1"/><stop offset="0.16" style="stop-color:rgb(219,136,64);stop-opacity:1"/><stop offset="0.33" style="stop-color:rgb(215,111,34);stop-opacity:1"/><stop offset="0.62" style="stop-color:rgb(237,246,250);stop-opacity:1"/><stop offset="1" style="stop-color:rgb(236,195,132);stop-opacity:1"/></linearGradient>
        <linearGradient id="_Linear25" x1="0" y1="0" x2="1" y2="0" gradientUnits="userSpaceOnUse" gradientTransform="matrix(880.672,0,0,727.111,30225.1,17783.3)"><stop offset="0" style="stop-color:rgb(233,214,156);stop-opacity:1"/><stop offset="0.16" style="stop-color:rgb(219,136,64);stop-opacity:1"/><stop offset="0.33" style="stop-color:rgb(215,111,34);stop-opacity:1"/><stop offset="0.62" style="stop-color:rgb(237,246,250);stop-opacity:1"/><stop offset="1" style="stop-color:rgb(236,195,132);stop-opacity:1"/></linearGradient>
        <linearGradient id="_Linear26" x1="0" y1="0" x2="1" y2="0" gradientUnits="userSpaceOnUse" gradientTransform="matrix(880.672,0,0,727.111,30225.1,17783.3)"><stop offset="0" style="stop-color:rgb(233,214,156);stop-opacity:1"/><stop offset="0.16" style="stop-color:rgb(219,136,64);stop-opacity:1"/><stop offset="0.33" style="stop-color:rgb(215,111,34);stop-opacity:1"/><stop offset="0.62" style="stop-color:rgb(237,246,250);stop-opacity:1"/><stop offset="1" style="stop-color:rgb(236,195,132);stop-opacity:1"/></linearGradient>
        <linearGradient id="_Linear27" x1="0" y1="0" x2="1" y2="0" gradientUnits="userSpaceOnUse" gradientTransform="matrix(880.672,0,0,727.111,30225.1,17783.3)"><stop offset="0" style="stop-color:rgb(233,214,156);stop-opacity:1"/><stop offset="0.16" style="stop-color:rgb(219,136,64);stop-opacity:1"/><stop offset="0.33" style="stop-color:rgb(215,111,34);stop-opacity:1"/><stop offset="0.62" style="stop-color:rgb(237,246,250);stop-opacity:1"/><stop offset="1" style="stop-color:rgb(236,195,132);stop-opacity:1"/></linearGradient>
        <linearGradient id="_Linear28" x1="0" y1="0" x2="1" y2="0" gradientUnits="userSpaceOnUse" gradientTransform="matrix(880.672,0,0,727.111,30225.1,17783.3)"><stop offset="0" style="stop-color:rgb(233,214,156);stop-opacity:1"/><stop offset="0.16" style="stop-color:rgb(219,136,64);stop-opacity:1"/><stop offset="0.33" style="stop-color:rgb(215,111,34);stop-opacity:1"/><stop offset="0.62" style="stop-color:rgb(237,246,250);stop-opacity:1"/><stop offset="1" style="stop-color:rgb(236,195,132);stop-opacity:1"/></linearGradient>
        <linearGradient id="_Linear29" x1="0" y1="0" x2="1" y2="0" gradientUnits="userSpaceOnUse" gradientTransform="matrix(880.672,0,0,727.111,30225.1,17783.3)"><stop offset="0" style="stop-color:rgb(233,214,156);stop-opacity:1"/><stop offset="0.16" style="stop-color:rgb(219,136,64);stop-opacity:1"/><stop offset="0.33" style="stop-color:rgb(215,111,34);stop-opacity:1"/><stop offset="0.62" style="stop-color:rgb(237,246,250);stop-opacity:1"/><stop offset="1" style="stop-color:rgb(236,195,132);stop-opacity:1"/></linearGradient>
        <linearGradient id="_Linear30" x1="0" y1="0" x2="1" y2="0" gradientUnits="userSpaceOnUse" gradientTransform="matrix(880.672,0,0,727.111,30225.1,17783.3)"><stop offset="0" style="stop-color:rgb(233,214,156);stop-opacity:1"/><stop offset="0.16" style="stop-color:rgb(219,136,64);stop-opacity:1"/><stop offset="0.33" style="stop-color:rgb(215,111,34);stop-opacity:1"/><stop offset="0.62" style="stop-color:rgb(237,246,250);stop-opacity:1"/><stop offset="1" style="stop-color:rgb(236,195,132);stop-opacity:1"/></linearGradient>
        <linearGradient id="_Linear31" x1="0" y1="0" x2="1" y2="0" gradientUnits="userSpaceOnUse" gradientTransform="matrix(880.672,0,0,727.111,30225.1,17783.3)"><stop offset="0" style="stop-color:rgb(233,214,156);stop-opacity:1"/><stop offset="0.16" style="stop-color:rgb(219,136,64);stop-opacity:1"/><stop offset="0.33" style="stop-color:rgb(215,111,34);stop-opacity:1"/><stop offset="0.62" style="stop-color:rgb(237,246,250);stop-opacity:1"/><stop offset="1" style="stop-color:rgb(236,195,132);stop-opacity:1"/></linearGradient>
        <linearGradient id="_Linear32" x1="0" y1="0" x2="1" y2="0" gradientUnits="userSpaceOnUse" gradientTransform="matrix(880.672,0,0,727.111,30225.1,17783.3)"><stop offset="0" style="stop-color:rgb(233,214,156);stop-opacity:1"/><stop offset="0.16" style="stop-color:rgb(219,136,64);stop-opacity:1"/><stop offset="0.33" style="stop-color:rgb(215,111,34);stop-opacity:1"/><stop offset="0.62" style="stop-color:rgb(237,246,250);stop-opacity:1"/><stop offset="1" style="stop-color:rgb(236,195,132);stop-opacity:1"/></linearGradient>
        <linearGradient id="_Linear33" x1="0" y1="0" x2="1" y2="0" gradientUnits="userSpaceOnUse" gradientTransform="matrix(880.672,0,0,727.111,30225.1,17783.3)"><stop offset="0" style="stop-color:rgb(233,214,156);stop-opacity:1"/><stop offset="0.16" style="stop-color:rgb(219,136,64);stop-opacity:1"/><stop offset="0.33" style="stop-color:rgb(215,111,34);stop-opacity:1"/><stop offset="0.62" style="stop-color:rgb(237,246,250);stop-opacity:1"/><stop offset="1" style="stop-color:rgb(236,195,132);stop-opacity:1"/></linearGradient>
        <linearGradient id="_Linear34" x1="0" y1="0" x2="1" y2="0" gradientUnits="userSpaceOnUse" gradientTransform="matrix(880.672,0,0,727.111,30225.1,17783.3)"><stop offset="0" style="stop-color:rgb(233,214,156);stop-opacity:1"/><stop offset="0.16" style="stop-color:rgb(219,136,64);stop-opacity:1"/><stop offset="0.33" style="stop-color:rgb(215,111,34);stop-opacity:1"/><stop offset="0.62" style="stop-color:rgb(237,246,250);stop-opacity:1"/><stop offset="1" style="stop-color:rgb(236,195,132);stop-opacity:1"/></linearGradient>
    </defs>
</svg>
