<svg width="100%" height="100%" viewBox="0 0 37 37" version="1.1" xmlns="http://www.w3.org/2000/svg" xmlns:xlink="http://www.w3.org/1999/xlink" xml:space="preserve" style="fill-rule:evenodd;clip-rule:evenodd;stroke-linejoin:round;stroke-miterlimit:2;">
    <g transform="matrix(1,0,0,1,-24087.8,0)">
        <g id="mantle" transform="matrix(0.0111549,0,0,0.0274404,23837.1,36.5)">
            <rect x="22470.4" y="-1330.16" width="3272.1" height="1330.16" style="fill:none;"/>
            <clipPath id="_clip1">
                <rect x="22470.4" y="-1330.16" width="3272.1" height="1330.16"/>
            </clipPath>
            <g clip-path="url(#_clip1)">
                <g transform="matrix(89.5863,0,0,36.4427,22470.4,-1393.5)">
                    <path d="M7.517,14.545L1.979,11.726C1.546,12.577 1.177,13.469 0.883,14.378L6.797,16.29C6.99,15.692 7.232,15.106 7.518,14.546L7.517,14.545Z" style="fill:white;fill-rule:nonzero;"/>
                </g>
                <g transform="matrix(89.5863,0,0,36.4427,22470.4,-1393.5)">
                    <path d="M12.222,9.576L15.289,14.861C15.737,14.601 16.217,14.402 16.716,14.268L15.128,8.366C15.532,8.257 15.943,8.167 16.355,8.102L15.38,1.964C14.436,2.114 13.499,2.34 12.593,2.635L14.49,8.449C13.886,8.646 13.299,8.891 12.733,9.18L9.944,3.737C9.096,4.172 8.276,4.677 7.505,5.24L11.169,10.26C11.507,10.014 11.86,9.786 12.221,9.575L12.222,9.576Z" style="fill:white;fill-rule:nonzero;"/>
                </g>
                <g transform="matrix(89.5863,0,0,36.4427,22470.4,-1393.5)">
                    <path d="M28.683,13.955L23.399,17.025C23.66,17.473 23.859,17.953 23.994,18.451L29.895,16.86C30.004,17.264 30.094,17.674 30.159,18.087L36.297,17.109C36.147,16.166 35.92,15.228 35.624,14.322L29.811,16.222C29.613,15.619 29.369,15.032 29.079,14.466L34.52,11.674C34.085,10.827 33.579,10.007 33.017,9.236L27.998,12.903C28.244,13.24 28.472,13.592 28.683,13.955L28.683,13.955Z" style="fill:white;fill-rule:nonzero;"/>
                </g>
                <g transform="matrix(89.5863,0,0,36.4427,22470.4,-1393.5)">
                    <path d="M26.528,3.713C25.676,3.28 24.784,2.911 23.876,2.618L21.967,8.533C22.564,8.726 23.151,8.968 23.712,9.253L26.528,3.712L26.528,3.713Z" style="fill:white;fill-rule:nonzero;"/>
                </g>
                <g transform="matrix(89.5863,0,0,36.4427,22470.4,-1393.5)">
                    <path d="M24.322,9.467L21.219,14.852C21.668,15.111 22.083,15.428 22.451,15.795L31.153,7.064C30.478,6.391 29.745,5.766 28.974,5.207L25.385,10.157C25.042,9.909 24.688,9.678 24.322,9.467L24.322,9.467Z" style="fill:white;fill-rule:nonzero;"/>
                </g>
                <g transform="matrix(89.5863,0,0,36.4427,22470.4,-1393.5)">
                    <path d="M7.733,13.935L13.116,17.041C13.375,16.593 13.693,16.178 14.061,15.809L5.333,7.104C4.66,7.779 4.035,8.511 3.475,9.282L8.423,12.874C8.175,13.215 7.944,13.569 7.733,13.935Z" style="fill:white;fill-rule:nonzero;"/>
                </g>
                <g transform="matrix(89.5863,0,0,36.4427,22470.4,-1393.5)">
                    <path d="M20.146,7.998L21.085,1.956C20.157,1.811 19.208,1.738 18.262,1.738L18.248,1.738L18.248,14.066L18.262,14.066C18.782,14.066 19.296,14.133 19.791,14.264L21.385,8.257C20.977,8.149 20.564,8.063 20.146,7.998Z" style="fill:white;fill-rule:nonzero;"/>
                </g>
                <g transform="matrix(89.5863,0,0,36.4427,22470.4,-1393.5)">
                    <path d="M12.526,18.468L6.52,16.87C6.411,17.278 6.325,17.691 6.26,18.109L0.219,17.167C0.074,18.098 0,19.051 0,20L12.328,20C12.328,19.479 12.395,18.964 12.527,18.468L12.526,18.468Z" style="fill:white;fill-rule:nonzero;"/>
                </g>
                <g transform="matrix(89.5863,0,0,36.4427,22470.4,-1393.5)">
                    <path d="M29.007,25.456L34.546,28.276C34.979,27.424 35.348,26.532 35.641,25.623L29.728,23.711C29.534,24.309 29.292,24.895 29.007,25.455L29.007,25.456Z" style="fill:white;fill-rule:nonzero;"/>
                </g>
                <g transform="matrix(89.5863,0,0,36.4427,22470.4,-1393.5)">
                    <path d="M24.303,30.424L21.235,25.139C20.787,25.398 20.308,25.598 19.809,25.732L21.396,31.634C20.992,31.743 20.582,31.832 20.169,31.898L21.144,38.036C22.088,37.886 23.025,37.66 23.931,37.364L22.034,31.55C22.638,31.353 23.225,31.109 23.791,30.819L26.58,36.262C27.427,35.827 28.248,35.323 29.018,34.76L25.354,29.74C25.017,29.986 24.664,30.214 24.303,30.424Z" style="fill:white;fill-rule:nonzero;"/>
                </g>
                <g transform="matrix(89.5863,0,0,36.4427,22470.4,-1393.5)">
                    <path d="M7.842,26.047L13.126,22.976C12.866,22.529 12.666,22.049 12.531,21.551L6.63,23.141C6.521,22.737 6.432,22.327 6.366,21.915L0.228,22.892C0.378,23.835 0.605,24.773 0.901,25.68L6.714,23.779C6.912,24.383 7.156,24.97 7.446,25.536L2.005,28.328C2.44,29.175 2.946,29.995 3.508,30.765L8.527,27.099C8.281,26.761 8.053,26.409 7.842,26.047L7.842,26.047Z" style="fill:white;fill-rule:nonzero;"/>
                </g>
                <g transform="matrix(89.5863,0,0,36.4427,22470.4,-1393.5)">
                    <path d="M9.996,36.288C10.848,36.721 11.741,37.089 12.649,37.383L14.558,31.468C13.96,31.275 13.373,31.033 12.812,30.748L9.996,36.289L9.996,36.288Z" style="fill:white;fill-rule:nonzero;"/>
                </g>
                <g transform="matrix(89.5863,0,0,36.4427,22470.4,-1393.5)">
                    <path d="M12.203,30.534L15.306,25.149C14.856,24.89 14.442,24.573 14.073,24.206L5.371,32.938C6.046,33.61 6.78,34.235 7.551,34.795L11.14,29.845C11.482,30.093 11.836,30.323 12.203,30.535L12.203,30.534Z" style="fill:white;fill-rule:nonzero;"/>
                </g>
                <g transform="matrix(89.5863,0,0,36.4427,22470.4,-1393.5)">
                    <path d="M28.791,26.066L23.408,22.96C23.149,23.409 22.831,23.824 22.463,24.193L31.191,32.898C31.864,32.223 32.489,31.491 33.049,30.72L28.101,27.128C28.349,26.787 28.58,26.433 28.791,26.066L28.791,26.066Z" style="fill:white;fill-rule:nonzero;"/>
                </g>
                <g transform="matrix(89.5863,0,0,36.4427,22470.4,-1393.5)">
                    <path d="M16.734,25.736L15.14,31.744C15.548,31.852 15.961,31.937 16.378,32.002L15.44,38.045C16.368,38.189 17.317,38.262 18.263,38.262L18.277,38.262L18.277,25.934L18.263,25.934C17.743,25.934 17.229,25.868 16.734,25.736L16.734,25.736Z" style="fill:white;fill-rule:nonzero;"/>
                </g>
                <g transform="matrix(89.5863,0,0,36.4427,22470.4,-1393.5)">
                    <path d="M24.197,20.001C24.197,20.522 24.13,21.037 23.998,21.532L30.004,23.131C30.113,22.723 30.199,22.309 30.264,21.892L36.306,22.834C36.451,21.903 36.525,20.95 36.525,20.001L24.197,20.001L24.197,20.001Z" style="fill:white;fill-rule:nonzero;"/>
                </g>
            </g>
        </g>
    </g>
</svg>
